<svg width="156" height="41" viewBox="0 0 156 41" fill="none" xmlns="http://www.w3.org/2000/svg">
<g filter="url(#filter0_di_57_150)">
<mask id="path-1-outside-1_57_150" maskUnits="userSpaceOnUse" x="-4" y="-2" width="158" height="41" fill="black">
<rect fill="white" x="-4" y="-2" width="158" height="41"/>
<path d="M30.4406 1.15625C30.7219 1.10938 33.5656 1.08594 38.9719 1.08594C44.3938 1.08594 47.1047 1.125 47.1047 1.20312C47.1047 1.28125 47.0422 1.41406 46.9172 1.60156L46.5656 2.1875L31.8938 21.8516L31.2844 34.8125L28.0266 34.9531L14.7609 35.2344C14.5891 34.1719 14.5031 30.0859 14.5031 22.9766L0.440628 1.25L17.6906 0.828125L24.0891 10.3438L30.4406 1.15625ZM71.5078 26.5391C74.2578 26.5391 76.3594 25.7969 77.8125 24.3125C79.2813 22.8281 80.0156 20.6328 80.0156 17.7266C80.0156 14.8047 79.2734 12.7891 77.7891 11.6797C76.3047 10.5703 74.2578 10.0156 71.6484 10.0156C69.0391 10.0156 66.9688 10.7422 65.4375 12.1953C63.9219 13.6328 63.1641 15.7266 63.1641 18.4766C63.1641 23.8516 65.9453 26.5391 71.5078 26.5391ZM44.3906 18.8516C44.3906 12.8828 46.8047 8.29688 51.6328 5.09375C56.4766 1.89062 63.1797 0.289062 71.7422 0.289062C80.3047 0.289062 86.9219 1.77344 91.5938 4.74219C96.2656 7.71094 98.6016 11.9141 98.6016 17.3516C98.6016 23.2422 96.125 27.8359 91.1719 31.1328C86.2188 34.4141 79.4531 36.0547 70.875 36.0547C62.2969 36.0547 55.7344 34.5312 51.1875 31.4844C46.6563 28.4219 44.3906 24.2109 44.3906 18.8516ZM124.692 36.0547C118.864 36.0547 114.341 35.625 111.122 34.7656C103.794 32.8281 100.13 28.2812 100.13 21.125L100.27 11.9375C100.317 10.5312 100.364 8.67188 100.411 6.35938C100.473 4.04688 100.583 2.38281 100.739 1.36719L112.083 1.32031L119.325 1.17969C119.294 1.61719 119.278 2.25 119.278 3.07812C119.278 3.90625 119.27 4.50781 119.255 4.88281L118.505 20.6797C118.505 22.5703 119.106 24.0312 120.309 25.0625C121.528 26.0938 123.161 26.6094 125.208 26.6094C127.27 26.6094 128.942 25.8906 130.223 24.4531C131.52 23.0156 132.216 20.9844 132.309 18.3594L132.919 1.625C136.997 1.5 143.044 1.38281 151.059 1.27344C151.059 4.24219 150.919 8.28906 150.638 13.4141C150.356 18.5234 150.114 21.4609 149.911 22.2266C148.895 25.9297 146.997 28.8125 144.216 30.875C141.434 32.9219 138.364 34.2969 135.005 35C131.645 35.7031 128.208 36.0547 124.692 36.0547Z"/>
</mask>
<path d="M30.4406 1.15625C30.7219 1.10938 33.5656 1.08594 38.9719 1.08594C44.3938 1.08594 47.1047 1.125 47.1047 1.20312C47.1047 1.28125 47.0422 1.41406 46.9172 1.60156L46.5656 2.1875L31.8938 21.8516L31.2844 34.8125L28.0266 34.9531L14.7609 35.2344C14.5891 34.1719 14.5031 30.0859 14.5031 22.9766L0.440628 1.25L17.6906 0.828125L24.0891 10.3438L30.4406 1.15625ZM71.5078 26.5391C74.2578 26.5391 76.3594 25.7969 77.8125 24.3125C79.2813 22.8281 80.0156 20.6328 80.0156 17.7266C80.0156 14.8047 79.2734 12.7891 77.7891 11.6797C76.3047 10.5703 74.2578 10.0156 71.6484 10.0156C69.0391 10.0156 66.9688 10.7422 65.4375 12.1953C63.9219 13.6328 63.1641 15.7266 63.1641 18.4766C63.1641 23.8516 65.9453 26.5391 71.5078 26.5391ZM44.3906 18.8516C44.3906 12.8828 46.8047 8.29688 51.6328 5.09375C56.4766 1.89062 63.1797 0.289062 71.7422 0.289062C80.3047 0.289062 86.9219 1.77344 91.5938 4.74219C96.2656 7.71094 98.6016 11.9141 98.6016 17.3516C98.6016 23.2422 96.125 27.8359 91.1719 31.1328C86.2188 34.4141 79.4531 36.0547 70.875 36.0547C62.2969 36.0547 55.7344 34.5312 51.1875 31.4844C46.6563 28.4219 44.3906 24.2109 44.3906 18.8516ZM124.692 36.0547C118.864 36.0547 114.341 35.625 111.122 34.7656C103.794 32.8281 100.13 28.2812 100.13 21.125L100.27 11.9375C100.317 10.5312 100.364 8.67188 100.411 6.35938C100.473 4.04688 100.583 2.38281 100.739 1.36719L112.083 1.32031L119.325 1.17969C119.294 1.61719 119.278 2.25 119.278 3.07812C119.278 3.90625 119.27 4.50781 119.255 4.88281L118.505 20.6797C118.505 22.5703 119.106 24.0312 120.309 25.0625C121.528 26.0938 123.161 26.6094 125.208 26.6094C127.27 26.6094 128.942 25.8906 130.223 24.4531C131.52 23.0156 132.216 20.9844 132.309 18.3594L132.919 1.625C136.997 1.5 143.044 1.38281 151.059 1.27344C151.059 4.24219 150.919 8.28906 150.638 13.4141C150.356 18.5234 150.114 21.4609 149.911 22.2266C148.895 25.9297 146.997 28.8125 144.216 30.875C141.434 32.9219 138.364 34.2969 135.005 35C131.645 35.7031 128.208 36.0547 124.692 36.0547Z" fill="white"/>
<path d="M30.4406 1.15625L30.1118 -0.816538L29.2769 -0.677376L28.7955 0.0189219L30.4406 1.15625ZM46.9172 1.60156L45.2531 0.492162L45.2267 0.531761L45.2022 0.572571L46.9172 1.60156ZM46.5656 2.1875L48.1686 3.38352L48.2288 3.30283L48.2806 3.21649L46.5656 2.1875ZM31.8938 21.8516L30.2908 20.6555L29.9247 21.1462L29.896 21.7576L31.8938 21.8516ZM31.2844 34.8125L31.3706 36.8106L33.1963 36.7318L33.2822 34.9064L31.2844 34.8125ZM28.0266 34.9531L28.069 36.9527L28.0909 36.9522L28.1128 36.9513L28.0266 34.9531ZM14.7609 35.2344L12.7866 35.5538L13.0644 37.2708L14.8033 37.2339L14.7609 35.2344ZM14.5031 22.9766H16.5031V22.3858L16.1821 21.8898L14.5031 22.9766ZM0.440628 1.25L0.39173 -0.749402L-3.17933 -0.662066L-1.23837 2.33673L0.440628 1.25ZM17.6906 0.828125L19.3503 -0.28787L18.7383 -1.19809L17.6417 -1.17128L17.6906 0.828125ZM24.0891 10.3438L22.4294 11.4597L24.0661 13.8939L25.7342 11.4811L24.0891 10.3438ZM30.7694 3.12904C30.6607 3.14715 30.7041 3.13562 31.177 3.12498C31.5534 3.11651 32.0931 3.10928 32.8009 3.10345C34.2144 3.0918 36.2703 3.08594 38.9719 3.08594V-0.914062C36.2672 -0.914062 34.1981 -0.908204 32.7679 -0.896417C32.0538 -0.890531 31.4919 -0.883115 31.087 -0.874005C30.7787 -0.867069 30.3612 -0.858091 30.1118 -0.816538L30.7694 3.12904ZM38.9719 3.08594C41.6807 3.08594 43.7021 3.09571 45.0427 3.11503C45.7161 3.12473 46.201 3.13663 46.51 3.14999C46.6708 3.15694 46.7513 3.16298 46.7769 3.16556C46.8013 3.16802 46.7424 3.16369 46.6504 3.14379C46.6208 3.13739 46.4674 3.10524 46.2811 3.02202C46.1948 2.9835 45.9807 2.88209 45.7584 2.68034C45.5387 2.48083 45.1047 1.98564 45.1047 1.20312H49.1047C49.1047 0.418169 48.6694 -0.0794487 48.447 -0.281354C48.2221 -0.485515 48.004 -0.589303 47.9124 -0.630185C47.7155 -0.718144 47.5463 -0.754941 47.4954 -0.765925C47.361 -0.794972 47.2387 -0.808155 47.1783 -0.814244C47.0345 -0.828747 46.8609 -0.83858 46.6828 -0.846278C46.3141 -0.862216 45.7823 -0.874731 45.1003 -0.884558C43.7299 -0.904305 41.685 -0.914062 38.9719 -0.914062V3.08594ZM45.1047 1.20312C45.1047 0.969697 45.1489 0.793027 45.1754 0.703796C45.204 0.607167 45.234 0.539892 45.2482 0.509734C45.275 0.452824 45.2865 0.442099 45.2531 0.492162L48.5813 2.71096C48.6729 2.57353 48.7782 2.40265 48.8675 2.21292C48.9328 2.07411 49.1047 1.69427 49.1047 1.20312H45.1047ZM45.2022 0.572571L44.8506 1.15851L48.2806 3.21649L48.6322 2.63055L45.2022 0.572571ZM44.9627 0.991478L30.2908 20.6555L33.4967 23.0476L48.1686 3.38352L44.9627 0.991478ZM29.896 21.7576L29.2866 34.7186L33.2822 34.9064L33.8915 21.9455L29.896 21.7576ZM31.1981 32.8144L27.9403 32.955L28.1128 36.9513L31.3706 36.8106L31.1981 32.8144ZM27.9842 32.9536L14.7185 33.2348L14.8033 37.2339L28.069 36.9527L27.9842 32.9536ZM16.7353 34.915C16.6765 34.5515 16.6111 33.4214 16.5671 31.331C16.5246 29.3086 16.5031 26.5258 16.5031 22.9766H12.5031C12.5031 26.5367 12.5246 29.3516 12.568 31.4151C12.61 33.4107 12.6735 34.8547 12.7866 35.5538L16.7353 34.915ZM16.1821 21.8898L2.11962 0.163272L-1.23837 2.33673L12.8241 24.0633L16.1821 21.8898ZM0.489527 3.2494L17.7395 2.82753L17.6417 -1.17128L0.39173 -0.749402L0.489527 3.2494ZM16.0309 1.94412L22.4294 11.4597L25.7488 9.22775L19.3503 -0.28787L16.0309 1.94412ZM25.7342 11.4811L32.0858 2.29358L28.7955 0.0189219L22.4439 9.20642L25.7342 11.4811ZM77.8125 24.3125L76.3908 22.9058L76.3833 22.9134L77.8125 24.3125ZM65.4375 12.1953L66.8138 13.6464L66.8142 13.646L65.4375 12.1953ZM51.6328 5.09375L50.5296 3.42552L50.5272 3.42716L51.6328 5.09375ZM91.1719 31.1328L92.2764 32.8001L92.2801 32.7977L91.1719 31.1328ZM51.1875 31.4844L50.0676 33.1414L50.0742 33.1458L51.1875 31.4844ZM71.5078 28.5391C74.6146 28.5391 77.3022 27.6928 79.2417 25.7116L76.3833 22.9134C75.4166 23.901 73.901 24.5391 71.5078 24.5391V28.5391ZM79.2342 25.7192C81.1985 23.734 82.0156 20.95 82.0156 17.7266H78.0156C78.0156 20.3156 77.364 21.9223 76.3908 22.9058L79.2342 25.7192ZM82.0156 17.7266C82.0156 14.5435 81.2125 11.7414 78.9864 10.0777L76.5918 13.2817C77.3344 13.8367 78.0156 15.0659 78.0156 17.7266H82.0156ZM78.9864 10.0777C77.0404 8.62332 74.518 8.01562 71.6484 8.01562V12.0156C73.9977 12.0156 75.569 12.5173 76.5918 13.2817L78.9864 10.0777ZM71.6484 8.01562C68.654 8.01562 66.0467 8.86 64.0608 10.7446L66.8142 13.646C67.8908 12.6244 69.4242 12.0156 71.6484 12.0156V8.01562ZM64.0612 10.7442C62.0324 12.6684 61.1641 15.3595 61.1641 18.4766H65.1641C65.1641 16.0936 65.8114 14.5972 66.8138 13.6464L64.0612 10.7442ZM61.1641 18.4766C61.1641 21.4901 61.9475 24.1134 63.8602 25.9617C65.7602 27.7976 68.4351 28.5391 71.5078 28.5391V24.5391C69.018 24.5391 67.5211 23.9368 66.6398 23.0852C65.7712 22.2459 65.1641 20.838 65.1641 18.4766H61.1641ZM46.3906 18.8516C46.3906 13.5288 48.4889 9.57966 52.7385 6.76034L50.5272 3.42716C45.1205 7.01409 42.3906 12.2368 42.3906 18.8516H46.3906ZM52.736 6.76198C57.1316 3.85521 63.3963 2.28906 71.7422 2.28906V-1.71094C62.9631 -1.71094 55.8215 -0.0739574 50.5296 3.42552L52.736 6.76198ZM71.7422 2.28906C80.1164 2.28906 86.3003 3.74811 90.5211 6.43021L92.6664 3.05417C87.5434 -0.20123 80.4929 -1.71094 71.7422 -1.71094V2.28906ZM90.5211 6.43021C94.6281 9.04 96.6016 12.6132 96.6016 17.3516H100.602C100.602 11.215 97.9032 6.38188 92.6664 3.05417L90.5211 6.43021ZM96.6016 17.3516C96.6016 22.5649 94.4665 26.5373 90.0637 29.4679L92.2801 32.7977C97.7835 29.1345 100.602 23.9195 100.602 17.3516H96.6016ZM90.0673 29.4655C85.557 32.4534 79.2262 34.0547 70.875 34.0547V38.0547C79.6801 38.0547 86.8805 36.3747 92.2764 32.8001L90.0673 29.4655ZM70.875 34.0547C62.4859 34.0547 56.3803 32.5566 52.3009 29.8229L50.0742 33.1458C55.0885 36.5059 62.1079 38.0547 70.875 38.0547V34.0547ZM52.3074 29.8273C48.313 27.1276 46.3906 23.5306 46.3906 18.8516H42.3906C42.3906 24.8913 44.9995 29.7161 50.0676 33.1414L52.3074 29.8273ZM111.122 34.7656L111.638 32.8333L111.633 32.8321L111.122 34.7656ZM100.13 21.125L98.1299 21.0944L98.1297 21.1097V21.125H100.13ZM100.27 11.9375L98.2714 11.8709L98.2708 11.8889L98.2706 11.9069L100.27 11.9375ZM100.411 6.35938L98.4116 6.30534L98.4114 6.31884L100.411 6.35938ZM100.739 1.36719L100.731 -0.632795L99.0221 -0.625735L98.7623 1.06307L100.739 1.36719ZM112.083 1.32031L112.091 3.3203L112.106 3.32023L112.122 3.31994L112.083 1.32031ZM119.325 1.17969L121.32 1.32218L121.476 -0.862455L119.286 -0.819936L119.325 1.17969ZM119.255 4.88281L121.252 4.97766L121.253 4.96607L119.255 4.88281ZM118.505 20.6797L116.507 20.5848L116.505 20.6322V20.6797H118.505ZM120.309 25.0625L119.008 26.581L119.017 26.5893L120.309 25.0625ZM130.223 24.4531L128.738 23.1134L128.73 23.1224L130.223 24.4531ZM132.309 18.3594L130.311 18.2866L130.311 18.288L132.309 18.3594ZM132.919 1.625L132.857 -0.374062L130.988 -0.316763L130.92 1.55222L132.919 1.625ZM151.059 1.27344H153.059V-0.754039L151.032 -0.726377L151.059 1.27344ZM150.638 13.4141L152.634 13.524L152.635 13.5237L150.638 13.4141ZM149.911 22.2266L151.84 22.7556L151.842 22.7475L151.844 22.7394L149.911 22.2266ZM144.216 30.875L145.401 32.4858L145.407 32.4815L144.216 30.875ZM124.692 34.0547C118.929 34.0547 114.608 33.6263 111.638 32.8333L110.606 36.6979C114.073 37.6237 118.799 38.0547 124.692 38.0547V34.0547ZM111.633 32.8321C108.258 31.9398 105.93 30.5021 104.435 28.6474C102.95 26.8042 102.13 24.3527 102.13 21.125H98.1297C98.1297 25.0536 99.1418 28.4537 101.32 31.1573C103.49 33.8495 106.657 35.654 110.611 36.6992L111.633 32.8321ZM102.129 21.1556L102.27 11.9681L98.2706 11.9069L98.1299 21.0944L102.129 21.1556ZM102.269 12.0041C102.316 10.5855 102.364 8.71635 102.411 6.39991L98.4114 6.31884C98.3646 8.6274 98.3179 10.477 98.2714 11.8709L102.269 12.0041ZM102.41 6.41341C102.473 4.10759 102.58 2.55251 102.716 1.6713L98.7623 1.06307C98.5854 2.21312 98.4743 3.98616 98.4117 6.30534L102.41 6.41341ZM100.747 3.36717L112.091 3.3203L112.075 -0.67967L100.731 -0.632795L100.747 3.36717ZM112.122 3.31994L119.364 3.17931L119.286 -0.819936L112.044 -0.679311L112.122 3.31994ZM117.33 1.03719C117.294 1.54682 117.278 2.23622 117.278 3.07812H121.278C121.278 2.26378 121.294 1.68756 121.32 1.32218L117.33 1.03719ZM117.278 3.07812C117.278 3.90332 117.27 4.46924 117.256 4.79955L121.253 4.96607C121.27 4.54638 121.278 3.90918 121.278 3.07812H117.278ZM117.257 4.78796L116.507 20.5848L120.502 20.7745L121.252 4.97766L117.257 4.78796ZM116.505 20.6797C116.505 23.0302 117.275 25.0959 119.008 26.581L121.611 23.544C120.937 22.9666 120.505 22.1105 120.505 20.6797H116.505ZM119.017 26.5893C120.689 28.0039 122.824 28.6094 125.208 28.6094V24.6094C123.498 24.6094 122.367 24.1836 121.601 23.5357L119.017 26.5893ZM125.208 28.6094C127.795 28.6094 130.026 27.6801 131.716 25.7839L128.73 23.1224C127.858 24.1011 126.746 24.6094 125.208 24.6094V28.6094ZM131.708 25.7928C133.417 23.8989 134.204 21.3579 134.308 18.4308L130.311 18.288C130.228 20.6108 129.624 22.1323 128.738 23.1134L131.708 25.7928ZM134.308 18.4322L134.917 1.69778L130.92 1.55222L130.311 18.2866L134.308 18.4322ZM132.98 3.62406C137.041 3.4996 143.074 3.38259 151.087 3.27325L151.032 -0.726377C143.014 -0.616963 136.953 -0.499598 132.857 -0.374062L132.98 3.62406ZM149.059 1.27344C149.059 4.18871 148.921 8.19386 148.641 13.3045L152.635 13.5237C152.917 8.38427 153.059 4.29567 153.059 1.27344H149.059ZM148.641 13.3041C148.5 15.8518 148.371 17.8427 148.252 19.2849C148.192 20.0068 148.136 20.5781 148.085 21.0063C148.059 21.2203 148.036 21.3888 148.015 21.5165C148.005 21.5799 147.996 21.6285 147.989 21.6643C147.981 21.7013 147.977 21.716 147.978 21.7137L151.844 22.7394C152.001 22.1483 152.122 21.0244 152.238 19.6136C152.361 18.1182 152.493 16.0857 152.634 13.524L148.641 13.3041ZM147.982 21.6976C147.071 25.0189 145.407 27.5018 143.024 29.2685L145.407 32.4815C148.587 30.1232 150.719 26.8404 151.84 22.7556L147.982 21.6976ZM143.03 29.2642C140.478 31.1423 137.672 32.3984 134.595 33.0424L135.414 36.9576C139.056 36.1954 142.391 34.7014 145.401 32.4858L143.03 29.2642ZM134.595 33.0424C131.374 33.7167 128.074 34.0547 124.692 34.0547V38.0547C128.342 38.0547 131.917 37.6896 135.414 36.9576L134.595 33.0424Z" fill="black" mask="url(#path-1-outside-1_57_150)"/>
</g>
<defs>
<filter id="filter0_di_57_150" x="0.44043" y="0.289062" width="154.619" height="39.7656" filterUnits="userSpaceOnUse" color-interpolation-filters="sRGB">
<feFlood flood-opacity="0" result="BackgroundImageFix"/>
<feColorMatrix in="SourceAlpha" type="matrix" values="0 0 0 0 0 0 0 0 0 0 0 0 0 0 0 0 0 0 127 0" result="hardAlpha"/>
<feOffset dx="4" dy="4"/>
<feComposite in2="hardAlpha" operator="out"/>
<feColorMatrix type="matrix" values="0 0 0 0 0 0 0 0 0 0 0 0 0 0 0 0 0 0 1 0"/>
<feBlend mode="normal" in2="BackgroundImageFix" result="effect1_dropShadow_57_150"/>
<feBlend mode="normal" in="SourceGraphic" in2="effect1_dropShadow_57_150" result="shape"/>
<feColorMatrix in="SourceAlpha" type="matrix" values="0 0 0 0 0 0 0 0 0 0 0 0 0 0 0 0 0 0 127 0" result="hardAlpha"/>
<feOffset dx="4" dy="-7"/>
<feComposite in2="hardAlpha" operator="arithmetic" k2="-1" k3="1"/>
<feColorMatrix type="matrix" values="0 0 0 0 0.7625 0 0 0 0 0.7625 0 0 0 0 0.7625 0 0 0 1 0"/>
<feBlend mode="normal" in2="shape" result="effect2_innerShadow_57_150"/>
</filter>
</defs>
</svg>
